<svg xmlns="http://www.w3.org/2000/svg" viewBox="0 0 20 27"><defs><style>.cls-1{fill:#dff0fe;}.cls-2{fill:#070707;}.cls-3{fill:#151516;}.cls-4{fill:#edefce;}.cls-5{fill:#1a1c1e;}.cls-6{fill:#151616;}.cls-7{fill:#101111;}</style></defs><title>Asset 4</title><g id="Layer_2" data-name="Layer 2"><g id="Layer_1-2" data-name="Layer 1"><path class="cls-1" d="M17.1,18.2a2.4,2.4,0,0,1,0-4.8c2,0,2.4.5,2.4,1.4C19.5,16.3,18.3,18.2,17.1,18.2Z"/><path class="cls-2" d="M17.1,14c1.9,0,1.9.5,1.9.9,0,1.2-1,2.8-1.9,2.8a1.9,1.9,0,0,1-1.9-1.9A2,2,0,0,1,17.1,14m0-1a2.9,2.9,0,0,0,0,5.8c1.6,0,2.9-2.2,2.9-3.8s-1.3-2-2.9-2Z"/><path class="cls-1" d="M2.9,18.2C1.7,18.2.5,16.3.5,14.9c0-.9.4-1.4,2.4-1.4a2.43,2.43,0,0,1,2.4,2.4A2.35,2.35,0,0,1,2.9,18.2Z"/><path class="cls-3" d="M2.9,14a1.9,1.9,0,0,1,1.9,1.9,1.84,1.84,0,0,1-1.9,1.9C2.1,17.8,1,16.2,1,15c0-.5,0-1,1.9-1m0-1C1.3,13,0,13.3,0,14.9s1.3,3.8,2.9,3.8a2.85,2.85,0,1,0,0-5.7Z"/><path class="cls-4" d="M10,26.5a2.27,2.27,0,0,1-1.6-.6l-.1-.1H8.2a7.51,7.51,0,0,1-5.7-7.3V9.2A3.33,3.33,0,0,1,5.8,5.9h8.4a3.33,3.33,0,0,1,3.3,3.3v9.3a7.57,7.57,0,0,1-5.7,7.3h-.1l-.1.1A2.27,2.27,0,0,1,10,26.5Z"/><path class="cls-5" d="M14.2,6.4A2.8,2.8,0,0,1,17,9.2v9.3a7.05,7.05,0,0,1-5.3,6.8l-.2.1-.2.2A3.32,3.32,0,0,1,10,26a2.23,2.23,0,0,1-1.3-.5l-.2-.2-.2-.1A7.05,7.05,0,0,1,3,18.4V9.1A2.8,2.8,0,0,1,5.8,6.3h8.4m0-.9H5.8A3.8,3.8,0,0,0,2,9.2v9.3a8,8,0,0,0,6,7.7,2.79,2.79,0,0,0,2,.8,3,3,0,0,0,2-.8,7.93,7.93,0,0,0,6-7.7V9.2a3.8,3.8,0,0,0-3.8-3.8Z"/><path class="cls-6" d="M17.5,16.5V13a4.89,4.89,0,0,0-3.3-4.7l-.3-.1-.2.2s-2.1,2.1-6.6,2.1c-1.4,0-4.6,0-4.6,3.5v2.5H2.3A21.12,21.12,0,0,1,.5,9.3C.5,4,4.1.5,9.5.5c3.8,0,5,2.6,5,2.7l.1.3h.3c1.7,0,4.5,1.2,4.5,5.5,0,2.6-1.4,6.4-1.8,7.5Z"/><path class="cls-7" d="M9.5,1a4.85,4.85,0,0,1,4.6,2.4l.3.6H15c1.8,0,4,1.3,4,5a17.76,17.76,0,0,1-1,5V13a5.33,5.33,0,0,0-3.7-5.2l-.6-.2-.4.4c-.1.1-2,1.9-6.2,1.9-1.4,0-5.1,0-5.1,4v.3a15.87,15.87,0,0,1-1-5C1,4.3,4.4,1,9.5,1m0-1C3.7,0,0,4,0,9.3A21.73,21.73,0,0,0,2,17H3V14c0-2.7,2-3,4.1-3C11.8,11,14,8.8,14,8.8A4.27,4.27,0,0,1,17,13v4h1s2-4.8,2-8c0-4.5-2.9-6-5-6A5.78,5.78,0,0,0,9.5,0Z"/></g></g></svg>