<?xml version="1.0" encoding="utf-8"?>
<!-- Generator: Adobe Illustrator 22.1.0, SVG Export Plug-In . SVG Version: 6.00 Build 0)  -->
<svg version="1.1" id="Layer_1" xmlns="http://www.w3.org/2000/svg" xmlns:xlink="http://www.w3.org/1999/xlink" x="0px" y="0px"
	 viewBox="0 0 40 40" style="enable-background:new 0 0 40 40;" xml:space="preserve">
<style type="text/css">
	.st0{fill:none;stroke:#9DAC8A;stroke-width:2;stroke-linecap:round;stroke-miterlimit:10;}
	.st1{fill:#9DAC8A;}
	.st2{fill:#DFF0FE;}
	.st3{fill:#070707;}
	.st4{fill:#151516;}
	.st5{fill:#EDEFCE;}
	.st6{fill:#1A1C1E;}
	.st7{fill:#151616;}
	.st8{fill:#101111;}
</style>
<path class="st0" d="M2,20c0-9.9,8.1-18,18-18c7.1,0,13.3,4.1,16.2,10.1"/>
<path class="st0" d="M38,20c0,9.9-8.1,18-18,18c-7.1,0-13.3-4.1-16.2-10.1"/>
<g>
	<path class="st1" d="M1.3,16.5c-0.1,0.5-0.2,1-0.2,1.5c0,0.1,0,0.2,0,0.3C1,18.8,1,19.4,1,20s0,1.2,0.1,1.8c0,0.1,0,0.2,0,0.3
		c0.1,0.5,0.1,1,0.2,1.5c0,0.2,0.1,0.4,0.1,0.6L5.9,16h-3L1.3,16.5z"/>
	<path class="st1" d="M38.7,23.5C38.8,23,39,20.6,39,20s0-1.2-0.1-1.8c0-0.1,0-0.2,0-0.3c-0.1-0.5-0.1-1-0.2-1.5
		c0-0.3-0.1-0.5-0.2-0.7L34,24h3.1L38.7,23.5z"/>
</g>
<g>
	<path class="st2" d="M27.1,25.2c-1.3,0-2.4-1.1-2.4-2.4s1.1-2.4,2.4-2.4c2,0,2.4,0.5,2.4,1.4C29.5,23.3,28.3,25.2,27.1,25.2z"/>
	<g>
		<path class="st3" d="M27.1,21c1.9,0,1.9,0.5,1.9,0.9c0,1.2-1,2.8-1.9,2.8c-1,0-1.9-0.8-1.9-1.9C25.3,21.8,26.1,21,27.1,21
			 M27.1,20c-1.6,0-2.9,1.3-2.9,2.9s1.3,2.9,2.9,2.9c1.6,0,2.9-2.2,2.9-3.8C30,20.3,28.7,20,27.1,20L27.1,20z"/>
	</g>
</g>
<g>
	<path class="st2" d="M12.9,25.2c-1.2,0-2.4-1.9-2.4-3.3c0-0.9,0.4-1.4,2.4-1.4c1.3,0,2.4,1.1,2.4,2.4S14.2,25.2,12.9,25.2z"/>
	<g>
		<path class="st4" d="M12.9,21c1,0,1.9,0.8,1.9,1.9s-0.8,1.9-1.9,1.9c-0.8,0-1.9-1.6-1.9-2.8C11,21.5,11,21,12.9,21 M12.9,20
			c-1.6,0-2.9,0.3-2.9,1.9c0,1.6,1.3,3.8,2.9,3.8s2.9-1.3,2.9-2.9S14.4,20,12.9,20L12.9,20z"/>
	</g>
</g>
<g>
	<g>
		<path class="st5" d="M20,33.5c-0.6,0-1.2-0.2-1.6-0.6l-0.1-0.1l-0.1,0c-3.3-0.8-5.7-3.8-5.7-7.3v-9.3c0-1.8,1.5-3.3,3.3-3.3h8.4
			c1.8,0,3.3,1.5,3.3,3.3v9.3c0,3.4-2.3,6.4-5.7,7.3l-0.1,0l-0.1,0.1C21.2,33.3,20.6,33.5,20,33.5z"/>
	</g>
	<g>
		<path class="st6" d="M24.2,13.4c1.6,0,2.8,1.3,2.8,2.8v9.3c0,3.2-2.2,6-5.3,6.8l-0.2,0.1l-0.2,0.2C21,32.7,20.6,33,20,33
			s-1-0.3-1.3-0.5l-0.2-0.2l-0.2-0.1c-3.1-0.8-5.3-3.6-5.3-6.8v-9.3c0-1.6,1.3-2.8,2.8-2.8H24.2 M24.2,12.4h-8.4
			c-2.1,0-3.8,1.7-3.8,3.8v9.3c0,3.7,2.6,6.9,6,7.7c0.5,0.5,1.2,0.8,2,0.8s1.4-0.3,2-0.8c3.5-0.9,6-4,6-7.7v-9.3
			C28,14.1,26.3,12.4,24.2,12.4L24.2,12.4z"/>
	</g>
</g>
<g>
	<path class="st7" d="M27.5,23.5V20c0-3.7-3.3-4.7-3.3-4.7l-0.3-0.1l-0.2,0.2c0,0-2.1,2.1-6.6,2.1c-1.4,0-4.6,0-4.6,3.5v2.5h-0.2
		c-0.4-1-1.8-4.3-1.8-7.2c0-5.3,3.6-8.8,9-8.8c3.8,0,5,2.6,5,2.7l0.1,0.3l0.3,0c1.7,0,4.5,1.2,4.5,5.5c0,2.6-1.4,6.4-1.8,7.5H27.5z"
		/>
	<g>
		<path class="st8" d="M19.5,8c3.5,0,4.5,2.3,4.6,2.4l0.3,0.6H25c1.8,0,4,1.3,4,5c0,1.5-0.5,3.5-1,5V20c0-3.3-2.4-4.8-3.7-5.2
			l-0.6-0.2l-0.4,0.4c-0.1,0.1-2,1.9-6.2,1.9c-1.4,0-5.1,0-5.1,4v0.3c-0.5-1.4-1-3.3-1-5C11,11.3,14.4,8,19.5,8 M19.5,7
			c-5.8,0-9.5,4-9.5,9.3c0,3.5,2,7.7,2,7.7h1c0,0,0-2,0-3c0-2.7,2-3,4.1-3c4.7,0,6.9-2.2,6.9-2.2S27,16.6,27,20c0,1.1,0,4,0,4h1
			c0,0,2-4.8,2-8c0-4.5-2.9-6-5-6C25,10,23.7,7,19.5,7L19.5,7z"/>
	</g>
</g>
<path class="st0" d="M30,13.4"/>
<path class="st0" d="M34.9,12.4"/>
</svg>
